<svg width="24" height="24" viewBox="0 0 24 24" fill="none" xmlns="http://www.w3.org/2000/svg">
<path d="M17.3516 15.0618C18.9931 15.5342 20 16.2194 20 17.2102C20 18.4207 18.3295 19.2826 15.8489 19.7053L15.4396 19.77C15.3009 19.7903 15.16 19.8093 15.017 19.8269L14.5818 19.8759C14.3612 19.8985 14.1362 19.918 13.9072 19.9345L13.4442 19.9635L12.9714 19.9843C12.8919 19.9871 12.8119 19.9895 12.7317 19.9916L12.2458 20H11.7542L11.2683 19.9916C11.1881 19.9895 11.1081 19.9871 11.0286 19.9843L10.5558 19.9635L10.0928 19.9345C9.8638 19.918 9.63878 19.8985 9.41818 19.8759L8.983 19.8269C8.91149 19.8181 8.84051 19.8089 8.77007 19.7994L8.35404 19.7386C5.76203 19.329 4 18.4535 4 17.2102C4 16.2194 5.00686 15.5342 6.64842 15.0618C7.03314 14.9511 7.43859 15.1605 7.554 15.5296C7.66942 15.8987 7.45111 16.2876 7.06639 16.3984C6.47308 16.5691 6.01183 16.7656 5.71955 16.9645C5.61862 17.0332 5.55237 17.0897 5.51135 17.1315L5.46757 17.1829C5.45849 17.1961 5.45455 17.2053 5.45455 17.2102C5.45455 17.3524 5.65557 17.5154 6.0165 17.6786L6.2101 17.7602C6.27895 17.7873 6.35205 17.8143 6.42921 17.8412L6.67269 17.9211C6.75778 17.9475 6.84674 17.9736 6.93938 17.9994L7.22816 18.0754C7.27807 18.0878 7.32885 18.1001 7.38047 18.1124L7.70023 18.1839C7.81009 18.2072 7.92314 18.2299 8.03921 18.2519L8.39628 18.3156L8.77029 18.3744C8.83397 18.3838 8.89831 18.393 8.96328 18.4019L9.36056 18.4525L9.77192 18.4969L10.1962 18.5345C10.3397 18.5459 10.4851 18.556 10.6323 18.5648L11.0791 18.5871L11.5354 18.6009C11.6121 18.6024 11.6893 18.6036 11.7667 18.6044L12 18.6056C12.1562 18.6056 12.3111 18.604 12.4646 18.6009L12.9209 18.5871L13.3677 18.5648C13.5149 18.556 13.6603 18.5459 13.8038 18.5345L14.2281 18.4969L14.6394 18.4525L15.0367 18.4019L15.4188 18.3456C15.4811 18.3358 15.5428 18.3258 15.6037 18.3156L15.9608 18.2519L16.1326 18.2184L16.4621 18.1486C16.5687 18.1247 16.672 18.1003 16.7718 18.0754L17.0606 17.9994C17.1069 17.9865 17.1523 17.9735 17.1968 17.9605L17.452 17.8813C17.5738 17.8413 17.6866 17.8009 17.7899 17.7602L17.9835 17.6786C18.3444 17.5154 18.5455 17.3524 18.5455 17.2102C18.5455 17.2053 18.5415 17.1961 18.5324 17.1829L18.4887 17.1316C18.4476 17.0897 18.3814 17.0332 18.2804 16.9645C17.9882 16.7656 17.5269 16.5691 16.9336 16.3984C16.5489 16.2876 16.3306 15.8987 16.446 15.5296C16.5614 15.1605 16.9668 14.9511 17.3516 15.0618ZM12 4C15.0085 4 17.4545 6.28924 17.4545 9.12192C17.4545 10.8413 16.482 12.5085 14.8858 14.0878C14.3435 14.6244 13.7647 15.1131 13.1857 15.5461L12.9383 15.7278L12.627 15.9461L12.3979 16.0965C12.1561 16.248 11.8439 16.248 11.6021 16.0965C11.5817 16.0837 11.5595 16.0695 11.5356 16.0541L11.2778 15.8807L11.0617 15.7278L10.8143 15.5461C10.2353 15.1131 9.65654 14.6244 9.11424 14.0878C7.51798 12.5085 6.54545 10.8413 6.54545 9.12192C6.54545 6.28924 8.99152 4 12 4ZM12 5.39545C9.78688 5.39545 8 7.06777 8 9.12192C8 10.4008 8.80021 11.7725 10.1585 13.1164C10.6503 13.603 11.1795 14.0499 11.7085 14.4455C11.8008 14.5146 11.8898 14.5795 11.9747 14.6401L12 14.657L12.0897 14.5938L12.2915 14.4455C12.8205 14.0499 13.3497 13.603 13.8415 13.1164C15.1998 11.7725 16 10.4008 16 9.12192C16 7.06777 14.2131 5.39545 12 5.39545ZM12 6.79089C13.4058 6.79089 14.5455 7.88424 14.5455 9.23292C14.5455 10.5816 13.4058 11.675 12 11.675C10.5942 11.675 9.45455 10.5816 9.45455 9.23292C9.45455 7.88424 10.5942 6.79089 12 6.79089ZM12 8.18634C11.3975 8.18634 10.9091 8.65492 10.9091 9.23292C10.9091 9.81093 11.3975 10.2795 12 10.2795C12.6025 10.2795 13.0909 9.81093 13.0909 9.23292C13.0909 8.65492 12.6025 8.18634 12 8.18634Z" fill="white"/>
</svg>
