<svg width="52" height="49" viewBox="0 0 52 49" fill="none" xmlns="http://www.w3.org/2000/svg">
<path fill-rule="evenodd" clip-rule="evenodd" d="M20.5238 18.93L18.6145 17.1401C19.6885 16.0662 22.5761 13.9422 25.5354 14.0376C28.6634 14.1385 29.8289 15.434 30.8358 16.5531L30.8358 16.5531C31.0196 16.7575 31.1982 16.9559 31.3824 17.1401C31.5463 17.0417 31.7339 16.9327 31.9428 16.8112C34.7752 15.1645 41.5277 11.2386 46.4174 0.79248H49.4005L36.752 22.7484H39.7352L38.7806 25.6122H32.337L37.5873 15.9468C36.4736 16.8219 33.8166 18.7629 32.0983 19.5266C32.0983 22.3904 30.3084 26.6861 24.4615 26.6861C19.7839 26.6861 17.5804 23.2655 17.0633 21.5551C19.6885 21.4358 25.7741 20.6244 29.1152 18.3333C27.564 15.7082 22.433 16.3048 20.5238 18.93ZM22.3136 23.345C23.7455 23.1064 27.1105 22.3188 29.1152 21.0778C28.1606 24.1803 24.7001 24.1803 22.3136 23.345ZM38.6612 27.8794H36.5134C33.6496 26.0895 31.7403 26.0895 28.5186 27.8794C25.7578 29.4131 24.3113 28.6688 22.3772 27.6736C22.0542 27.5074 21.7176 27.3342 21.359 27.1634C19.3544 26.2088 17.2622 26.7657 16.4667 27.1634C16.6258 27.4021 17.0872 28.1658 17.6599 29.3113C19.873 28.9186 20.843 29.5669 21.8387 30.2324C22.6585 30.7803 23.4957 31.3398 25.0581 31.3398C27.6098 31.3398 30.1959 30.102 31.7615 29.3527C31.8797 29.2961 31.9922 29.2422 32.0983 29.192C32.4563 29.0329 33.4586 28.9056 34.6042 29.6693C32.9336 31.8171 29.5925 33.965 25.7741 33.965C21.9557 33.965 14.3188 31.6978 14.3188 23.5837C14.3188 13.9183 23.2682 12.2477 25.7741 12.2477C27.7787 12.2477 30.3482 13.2819 31.3824 13.799L32.8143 11.5318C31.8597 10.9351 29.1152 9.74189 25.7741 9.74189C15.6314 9.74189 11.9323 17.6174 11.9323 23.5837C11.9323 29.5499 16.228 36.5901 25.7741 36.5901C33.4109 36.5901 37.5475 30.783 38.6612 27.8794ZM7.78745 46.1399L5.61942 45.4603C5.5102 45.9851 5.33362 46.3853 5.0897 46.6609C4.84941 46.9365 4.49262 47.0743 4.01933 47.0743C3.53148 47.0743 3.15284 46.9044 2.88343 46.5646C2.61402 46.2211 2.47932 45.5886 2.47932 44.6674C2.47932 43.9236 2.59218 43.378 2.8179 43.0307C3.11644 42.5625 3.54604 42.3284 4.10671 42.3284C4.35428 42.3284 4.57818 42.3812 4.77842 42.487C4.97865 42.5927 5.14795 42.7437 5.28629 42.94C5.37003 43.0571 5.45013 43.2421 5.52658 43.4951L7.711 42.991C7.43067 42.1151 7.00106 41.4657 6.42219 41.0428C5.84696 40.6199 5.05511 40.4085 4.04664 40.4085C2.75783 40.4085 1.76028 40.7785 1.05398 41.5185C0.351327 42.2548 0 43.31 0 44.6844C0 45.7151 0.200238 46.5609 0.600715 47.2216C1.00119 47.8823 1.4763 48.3448 2.02605 48.6091C2.57943 48.8697 3.29119 48.9999 4.16132 48.9999C4.87854 48.9999 5.46833 48.8923 5.9307 48.6771C6.39671 48.4619 6.78626 48.1428 7.09936 47.72C7.41246 47.2971 7.64183 46.7704 7.78745 46.1399ZM16.6562 48.8527V40.5501H14.3462L11.3317 45.1431V40.5501H8.99981V48.8527H11.3317L14.3298 44.2936V48.8527H16.6562ZM24.6512 42.5889H20.7793V48.8527H18.3109V40.5501H24.6512V42.5889ZM28.2555 40.5501H25.7816V48.8527H28.2555V45.4942H30.9587V48.8527H33.4435V40.5501H30.9587V43.4554H28.2555V40.5501ZM40.0131 47.4821H37.1952L36.8075 48.8527H34.279L37.288 40.5501H39.9858L42.9948 48.8527H40.4063L40.0131 47.4821ZM39.4943 45.6868L38.6096 42.7022L37.7304 45.6868H39.4943ZM49.3134 48.8527H51.7873V40.5501H44.9118V46.0436C44.9118 46.4514 44.8426 46.7327 44.7043 46.8875C44.5659 47.0385 44.3293 47.114 43.9944 47.114H43.623V48.796C43.9725 48.8564 44.282 48.8866 44.5514 48.8866C45.4324 48.8866 46.0696 48.7715 46.4627 48.5412C46.8596 48.3109 47.1108 47.9503 47.2164 47.4595C47.3256 46.9649 47.3802 46.1927 47.3802 45.1431V42.5889H49.3134V48.8527Z" fill="white"/>
</svg>
