<svg width="160" height="39" viewBox="0 0 160 39" fill="none" xmlns="http://www.w3.org/2000/svg">
<path d="M12.5221 0.257353V3.5386H3.98974V19.0809H0V0.257353H12.5221Z" fill="white"/>
<path d="M16.513 19.3474C15.61 19.3474 14.8053 19.1912 14.0989 18.8787C13.3925 18.56 12.8335 18.0913 12.4219 17.4724C12.0165 16.8474 11.8138 16.0692 11.8138 15.1379C11.8138 14.3536 11.9581 13.6949 12.2468 13.1618C12.5355 12.6287 12.9287 12.1998 13.4262 11.875C13.9238 11.5502 14.489 11.3051 15.1217 11.1397C15.7605 10.9743 16.4301 10.8578 17.1303 10.7904C17.9535 10.7047 18.6169 10.625 19.1206 10.5515C19.6243 10.4718 19.9898 10.3554 20.2171 10.2022C20.4444 10.049 20.558 9.8223 20.558 9.52206V9.46691C20.558 8.8848 20.3737 8.43444 20.0052 8.11581C19.6427 7.79718 19.1268 7.63787 18.4572 7.63787C17.7508 7.63787 17.1887 7.79412 16.771 8.10662C16.3533 8.41299 16.0769 8.79902 15.9417 9.26471L12.3113 8.97059C12.4956 8.11274 12.858 7.37132 13.3986 6.74632C13.9392 6.1152 14.6364 5.63113 15.4902 5.29412C16.3502 4.95098 17.3453 4.77941 18.4756 4.77941C19.2619 4.77941 20.0144 4.87132 20.7331 5.05515C21.4579 5.23897 22.0999 5.5239 22.6589 5.90993C23.224 6.29596 23.6693 6.79228 23.9949 7.3989C24.3205 7.99939 24.4833 8.71936 24.4833 9.55882V19.0809H20.7607V17.1232H20.6502C20.4229 17.5643 20.1188 17.9534 19.738 18.2904C19.3571 18.6213 18.8995 18.8817 18.365 19.0717C17.8306 19.2555 17.2133 19.3474 16.513 19.3474ZM17.6371 16.6452C18.2145 16.6452 18.7244 16.5319 19.1667 16.3051C19.609 16.0723 19.956 15.7598 20.2079 15.3676C20.4597 14.9755 20.5857 14.5312 20.5857 14.0349V12.5368C20.4628 12.6164 20.2939 12.69 20.0789 12.7574C19.87 12.8186 19.6335 12.8768 19.3694 12.932C19.1053 12.981 18.8411 13.027 18.577 13.0699C18.3128 13.1066 18.0733 13.1403 17.8583 13.171C17.3976 13.2384 16.9952 13.3456 16.6512 13.4926C16.3072 13.6397 16.04 13.8388 15.8496 14.0901C15.6592 14.3352 15.5639 14.6415 15.5639 15.0092C15.5639 15.5423 15.7574 15.9498 16.1444 16.2316C16.5376 16.5074 17.0351 16.6452 17.6371 16.6452Z" fill="white"/>
<path d="M26.2006 15.0827H30.0061C30.0245 15.5484 30.2333 15.9161 30.6326 16.1857C31.0319 16.4553 31.5479 16.5901 32.1806 16.5901C32.8194 16.5901 33.3569 16.443 33.7931 16.1489C34.2292 15.8487 34.4473 15.4197 34.4473 14.8621C34.4473 14.519 34.3613 14.2218 34.1893 13.9706C34.0173 13.7132 33.7777 13.511 33.4706 13.364C33.1634 13.2169 32.8072 13.1434 32.4017 13.1434H30.3654V10.579H32.4017C33.0099 10.579 33.4767 10.4381 33.8023 10.1562C34.134 9.87439 34.2999 9.52206 34.2999 9.09927C34.2999 8.62132 34.1279 8.23836 33.7839 7.95037C33.446 7.65625 32.9884 7.50919 32.4109 7.50919C31.8274 7.50919 31.3421 7.64093 30.9551 7.90441C30.5743 8.16176 30.3777 8.49877 30.3654 8.91544H26.5784C26.5907 8.06985 26.8456 7.33762 27.3432 6.71875C27.8469 6.09988 28.5226 5.62194 29.3703 5.28493C30.2241 4.94792 31.1793 4.77941 32.2359 4.77941C33.3907 4.77941 34.3859 4.94179 35.2213 5.26654C36.0628 5.58517 36.7078 6.04167 37.1562 6.63603C37.6108 7.23039 37.8381 7.93811 37.8381 8.75919C37.8381 9.50674 37.5924 10.1317 37.101 10.6342C36.6095 11.1366 35.9216 11.4951 35.037 11.7096V11.8566C35.6206 11.8934 36.1488 12.0496 36.6218 12.3254C37.0948 12.6011 37.4726 12.981 37.7552 13.4651C38.0377 13.943 38.179 14.5098 38.179 15.1654C38.179 16.0417 37.921 16.7923 37.405 17.4173C36.8952 18.0423 36.1888 18.5233 35.2858 18.8603C34.3889 19.1912 33.36 19.3566 32.199 19.3566C31.0688 19.3566 30.0552 19.1942 29.1583 18.8695C28.2676 18.5386 27.5582 18.0545 27.0299 17.4173C26.5077 16.78 26.2313 16.0018 26.2006 15.0827Z" fill="white"/>
<path d="M56.7099 6.84743H52.6741C52.6004 6.32659 52.4499 5.86397 52.2226 5.45956C51.9953 5.04902 51.7036 4.69975 51.3473 4.41176C50.991 4.12377 50.5794 3.90319 50.1126 3.75C49.6519 3.59681 49.1512 3.52022 48.6107 3.52022C47.634 3.52022 46.7832 3.76226 46.0583 4.24632C45.3335 4.72426 44.7714 5.42279 44.3721 6.34191C43.9729 7.2549 43.7732 8.36397 43.7732 9.66912C43.7732 11.011 43.9729 12.1385 44.3721 13.0515C44.7776 13.9645 45.3427 14.6538 46.0676 15.1195C46.7924 15.5852 47.6309 15.818 48.583 15.818C49.1174 15.818 49.6119 15.7475 50.0665 15.6066C50.5272 15.4657 50.9357 15.2604 51.292 14.9908C51.6483 14.7151 51.9431 14.3811 52.1766 13.989C52.4161 13.5968 52.582 13.1495 52.6741 12.6471L56.7099 12.6654C56.6055 13.5294 56.3444 14.3627 55.9267 15.1654C55.5152 15.962 54.9592 16.6759 54.259 17.307C53.5648 17.932 52.7355 18.4283 51.7711 18.796C50.8129 19.1575 49.7286 19.3382 48.5185 19.3382C46.8354 19.3382 45.3304 18.9583 44.0036 18.1985C42.6829 17.4387 41.6386 16.3388 40.8708 14.8989C40.1091 13.4589 39.7282 11.7157 39.7282 9.66912C39.7282 7.61642 40.1152 5.8701 40.8892 4.43015C41.6632 2.9902 42.7136 1.89338 44.0404 1.13971C45.3673 0.379902 46.86 0 48.5185 0C49.6119 0 50.6255 0.153186 51.5592 0.459559C52.499 0.765932 53.3314 1.21324 54.0562 1.80147C54.7811 2.38358 55.3708 3.09743 55.8254 3.94301C56.2861 4.7886 56.5809 5.75674 56.7099 6.84743Z" fill="white"/>
<path d="M58.1601 8.04228V4.96324H70.9862V8.04228H66.4252V19.0809H62.6842V8.04228H58.1601Z" fill="white"/>
<path d="M76.2947 19.3474C75.3918 19.3474 74.5871 19.1912 73.8806 18.8787C73.1742 18.56 72.6152 18.0913 72.2037 17.4724C71.7982 16.8474 71.5955 16.0692 71.5955 15.1379C71.5955 14.3536 71.7399 13.6949 72.0286 13.1618C72.3173 12.6287 72.7104 12.1998 73.208 11.875C73.7056 11.5502 74.2707 11.3051 74.9034 11.1397C75.5423 10.9743 76.2118 10.8578 76.9121 10.7904C77.7352 10.7047 78.3987 10.625 78.9024 10.5515C79.4061 10.4718 79.7716 10.3554 79.9988 10.2022C80.2261 10.049 80.3398 9.8223 80.3398 9.52206V9.46691C80.3398 8.8848 80.1555 8.43444 79.7869 8.11581C79.4245 7.79718 78.9085 7.63787 78.2389 7.63787C77.5325 7.63787 76.9705 7.79412 76.5527 8.10662C76.135 8.41299 75.8586 8.79902 75.7235 9.26471L72.0931 8.97059C72.2774 8.11274 72.6398 7.37132 73.1804 6.74632C73.7209 6.1152 74.4181 5.63113 75.272 5.29412C76.132 4.95098 77.1271 4.77941 78.2574 4.77941C79.0436 4.77941 79.7961 4.87132 80.5148 5.05515C81.2397 5.23897 81.8816 5.5239 82.4406 5.90993C83.0057 6.29596 83.4511 6.79228 83.7767 7.3989C84.1022 7.99939 84.265 8.71936 84.265 9.55882V19.0809H80.5425V17.1232H80.4319C80.2046 17.5643 79.9006 17.9534 79.5197 18.2904C79.1389 18.6213 78.6812 18.8817 78.1468 19.0717C77.6124 19.2555 76.995 19.3474 76.2947 19.3474ZM77.4189 16.6452C77.9963 16.6452 78.5061 16.5319 78.9484 16.3051C79.3907 16.0723 79.7378 15.7598 79.9896 15.3676C80.2415 14.9755 80.3674 14.5312 80.3674 14.0349V12.5368C80.2446 12.6164 80.0756 12.69 79.8606 12.7574C79.6518 12.8186 79.4153 12.8768 79.1511 12.932C78.887 12.981 78.6229 13.027 78.3587 13.0699C78.0946 13.1066 77.855 13.1403 77.64 13.171C77.1793 13.2384 76.777 13.3456 76.433 13.4926C76.089 13.6397 75.8218 13.8388 75.6313 14.0901C75.4409 14.3352 75.3457 14.6415 75.3457 15.0092C75.3457 15.5423 75.5392 15.9498 75.9262 16.2316C76.3193 16.5074 76.8169 16.6452 77.4189 16.6452Z" fill="white"/>
<path d="M96.5602 10.4596V13.5386H89.1704V10.4596H96.5602ZM90.4604 4.96324V19.0809H86.7103V4.96324H90.4604ZM99.0204 4.96324V19.0809H95.2979V4.96324H99.0204Z" fill="white"/>
<path d="M100.36 23.2169V15.9743H101.447C101.761 15.7782 102.012 15.4657 102.203 15.0368C102.399 14.6078 102.559 14.1023 102.682 13.5202C102.811 12.9381 102.909 12.31 102.977 11.636C103.05 10.9559 103.115 10.2696 103.17 9.57721L103.539 4.96324H114.393V15.9743H116.586V23.2169H112.845V19.0809H104.193V23.2169H100.36ZM105.354 15.9743H110.689V7.97794H106.874L106.727 9.57721C106.623 11.0846 106.472 12.3652 106.275 13.4191C106.079 14.4669 105.772 15.3186 105.354 15.9743Z" fill="white"/>
<path d="M122.309 19.3474C121.406 19.3474 120.602 19.1912 119.895 18.8787C119.189 18.56 118.63 18.0913 118.218 17.4724C117.813 16.8474 117.61 16.0692 117.61 15.1379C117.61 14.3536 117.754 13.6949 118.043 13.1618C118.332 12.6287 118.725 12.1998 119.223 11.875C119.72 11.5502 120.285 11.3051 120.918 11.1397C121.557 10.9743 122.226 10.8578 122.927 10.7904C123.75 10.7047 124.413 10.625 124.917 10.5515C125.421 10.4718 125.786 10.3554 126.013 10.2022C126.241 10.049 126.354 9.8223 126.354 9.52206V9.46691C126.354 8.8848 126.17 8.43444 125.801 8.11581C125.439 7.79718 124.923 7.63787 124.254 7.63787C123.547 7.63787 122.985 7.79412 122.567 8.10662C122.15 8.41299 121.873 8.79902 121.738 9.26471L118.108 8.97059C118.292 8.11274 118.654 7.37132 119.195 6.74632C119.735 6.1152 120.433 5.63113 121.287 5.29412C122.147 4.95098 123.142 4.77941 124.272 4.77941C125.058 4.77941 125.811 4.87132 126.529 5.05515C127.254 5.23897 127.896 5.5239 128.455 5.90993C129.02 6.29596 129.466 6.79228 129.791 7.3989C130.117 7.99939 130.28 8.71936 130.28 9.55882V19.0809H126.557V17.1232H126.446C126.219 17.5643 125.915 17.9534 125.534 18.2904C125.153 18.6213 124.696 18.8817 124.161 19.0717C123.627 19.2555 123.01 19.3474 122.309 19.3474ZM123.433 16.6452C124.011 16.6452 124.521 16.5319 124.963 16.3051C125.405 16.0723 125.752 15.7598 126.004 15.3676C126.256 14.9755 126.382 14.5312 126.382 14.0349V12.5368C126.259 12.6164 126.09 12.69 125.875 12.7574C125.666 12.8186 125.43 12.8768 125.166 12.932C124.902 12.981 124.637 13.027 124.373 13.0699C124.109 13.1066 123.87 13.1403 123.655 13.171C123.194 13.2384 122.792 13.3456 122.448 13.4926C122.104 13.6397 121.836 13.8388 121.646 14.0901C121.455 14.3352 121.36 14.6415 121.36 15.0092C121.36 15.5423 121.554 15.9498 121.941 16.2316C122.334 16.5074 122.831 16.6452 123.433 16.6452Z" fill="white"/>
<path d="M132.725 24.375V4.96324H136.595V7.33456H136.77C136.942 6.95466 137.191 6.56863 137.516 6.17647C137.848 5.77819 138.278 5.4473 138.806 5.18382C139.341 4.91422 140.004 4.77941 140.796 4.77941C141.828 4.77941 142.781 5.04902 143.653 5.58824C144.525 6.12132 145.222 6.92708 145.744 8.00552C146.267 9.07782 146.528 10.4228 146.528 12.0404C146.528 13.6152 146.273 14.9449 145.763 16.0294C145.259 17.1078 144.571 17.9259 143.699 18.4835C142.833 19.0349 141.862 19.3107 140.787 19.3107C140.026 19.3107 139.377 19.185 138.843 18.9338C138.315 18.6826 137.882 18.367 137.544 17.9871C137.206 17.6011 136.948 17.212 136.77 16.8199H136.65V24.375H132.725ZM136.567 12.0221C136.567 12.8615 136.684 13.5937 136.917 14.2187C137.151 14.8437 137.489 15.3309 137.931 15.6801C138.373 16.0233 138.911 16.1949 139.543 16.1949C140.182 16.1949 140.723 16.0202 141.165 15.671C141.607 15.3156 141.942 14.8254 142.169 14.2004C142.403 13.5692 142.52 12.8431 142.52 12.0221C142.52 11.2071 142.406 10.4902 142.179 9.87132C141.951 9.25245 141.617 8.76838 141.174 8.41912C140.732 8.06985 140.188 7.89522 139.543 7.89522C138.904 7.89522 138.364 8.06373 137.922 8.40073C137.486 8.73774 137.151 9.21568 136.917 9.83456C136.684 10.4534 136.567 11.1826 136.567 12.0221Z" fill="white"/>
<path d="M147.174 8.04228V4.96324H160V8.04228H155.439V19.0809H151.698V8.04228H147.174Z" fill="white"/>
<path d="M0 30.5872H1.00287L3.36098 35.6025H3.4423L5.80041 30.5872H6.80328V36.6292H6.01724V32.0387H5.94948L3.78111 36.6292H3.02218L0.853798 32.0387H0.786036V36.6292H0V30.5872Z" fill="white"/>
<path d="M10.9591 36.7236C10.4576 36.7236 10.0251 36.6272 9.66142 36.4344C9.30002 36.2397 9.02107 35.9683 8.82456 35.6202C8.63031 35.2701 8.53318 34.863 8.53318 34.3988C8.53318 33.9347 8.63031 33.5256 8.82456 33.1716C9.02107 32.8156 9.29437 32.5383 9.64448 32.3396C9.99684 32.139 10.4079 32.0387 10.8777 32.0387C11.1488 32.0387 11.4164 32.0781 11.6807 32.1567C11.945 32.2354 12.1855 32.3632 12.4024 32.5402C12.6192 32.7153 12.792 32.9474 12.9208 33.2365C13.0495 33.5256 13.1139 33.8816 13.1139 34.3044V34.5994H9.10238V33.9976H12.3007C12.3007 33.7419 12.242 33.5138 12.1246 33.3132C12.0094 33.1126 11.8445 32.9542 11.6299 32.8382C11.4176 32.7222 11.1669 32.6642 10.8777 32.6642C10.5593 32.6642 10.2837 32.733 10.051 32.8707C9.82066 33.0064 9.64335 33.1834 9.51912 33.4017C9.39489 33.62 9.33277 33.854 9.33277 34.1038V34.505C9.33277 34.8473 9.40053 35.1374 9.53606 35.3753C9.67384 35.6114 9.8647 35.7913 10.1086 35.9152C10.3526 36.0372 10.6361 36.0981 10.9591 36.0981C11.1691 36.0981 11.3588 36.0726 11.5283 36.0214C11.6999 35.9683 11.8479 35.8896 11.9721 35.7854C12.0963 35.6792 12.1923 35.5474 12.2601 35.3901L13.0326 35.5789C12.9513 35.807 12.8146 36.0077 12.6226 36.1807C12.4306 36.3518 12.1934 36.4856 11.9111 36.5819C11.6288 36.6764 11.3114 36.7236 10.9591 36.7236Z" fill="white"/>
<path d="M14.2432 32.7468V32.0977H18.4716V32.7468H16.764V36.6292H15.9644V32.7468H14.2432Z" fill="white"/>
<path d="M20.0355 38.3284V32.0977H20.8079V32.8176H20.9028C20.9615 32.7389 21.0429 32.6386 21.1468 32.5166C21.2529 32.3927 21.4042 32.2826 21.6008 32.1862C21.7995 32.0879 22.0683 32.0387 22.4071 32.0387C22.8453 32.0387 23.2316 32.1341 23.5658 32.3249C23.9001 32.5157 24.161 32.7861 24.3485 33.1362C24.536 33.4863 24.6297 33.8993 24.6297 34.3752C24.6297 34.8551 24.536 35.2711 24.3485 35.6232C24.161 35.9732 23.9013 36.2446 23.5692 36.4374C23.2372 36.6282 22.8543 36.7236 22.4207 36.7236C22.0864 36.7236 21.8187 36.6754 21.6177 36.579C21.4167 36.4807 21.2619 36.3695 21.1535 36.2456C21.0451 36.1198 20.9615 36.0155 20.9028 35.9329H20.835V38.3284H20.0355ZM20.8215 34.3634C20.8215 34.7057 20.8791 35.0076 20.9943 35.2691C21.1095 35.5287 21.2778 35.7323 21.4991 35.8798C21.7205 36.0254 21.9915 36.0981 22.3123 36.0981C22.6465 36.0981 22.9255 36.0214 23.1491 35.868C23.375 35.7126 23.5444 35.5042 23.6573 35.2426C23.7725 34.979 23.8301 34.686 23.8301 34.3634C23.8301 34.0448 23.7737 33.7577 23.6607 33.502C23.55 33.2443 23.3818 33.0408 23.1559 32.8913C22.9323 32.7399 22.6511 32.6642 22.3123 32.6642C21.987 32.6642 21.7137 32.7359 21.4923 32.8795C21.271 33.0211 21.1038 33.2198 20.9909 33.4754C20.878 33.7292 20.8215 34.0252 20.8215 34.3634Z" fill="white"/>
<path d="M28.3611 36.7236C27.8913 36.7236 27.4791 36.6262 27.1245 36.4315C26.7721 36.2368 26.4965 35.9644 26.2978 35.6143C26.1013 35.2642 26.003 34.8551 26.003 34.387C26.003 33.915 26.1013 33.503 26.2978 33.1509C26.4965 32.7989 26.7721 32.5255 27.1245 32.3308C27.4791 32.1361 27.8913 32.0387 28.3611 32.0387C28.8309 32.0387 29.242 32.1361 29.5944 32.3308C29.949 32.5255 30.2246 32.7989 30.4211 33.1509C30.6198 33.503 30.7192 33.915 30.7192 34.387C30.7192 34.8551 30.6198 35.2642 30.4211 35.6143C30.2246 35.9644 29.949 36.2368 29.5944 36.4315C29.242 36.6262 28.8309 36.7236 28.3611 36.7236ZM28.3611 36.0981C28.718 36.0981 29.0116 36.0185 29.242 35.8592C29.4724 35.6999 29.6429 35.4904 29.7536 35.2308C29.8643 34.9712 29.9196 34.6899 29.9196 34.387C29.9196 34.0842 29.8643 33.8019 29.7536 33.5403C29.6429 33.2788 29.4724 33.0673 29.242 32.9061C29.0116 32.7448 28.718 32.6642 28.3611 32.6642C28.0042 32.6642 27.7106 32.7448 27.4802 32.9061C27.2498 33.0673 27.0793 33.2788 26.9686 33.5403C26.8579 33.8019 26.8026 34.0842 26.8026 34.387C26.8026 34.6899 26.8579 34.9712 26.9686 35.2308C27.0793 35.4904 27.2498 35.6999 27.4802 35.8592C27.7106 36.0185 28.0042 36.0981 28.3611 36.0981Z" fill="white"/>
<path d="M31.8765 36.6292V35.9801H32.0663C32.2221 35.9801 32.352 35.9536 32.4559 35.9005C32.5598 35.8454 32.6434 35.75 32.7066 35.6143C32.7721 35.4766 32.8218 35.2859 32.8557 35.042C32.8918 34.7961 32.9178 34.4834 32.9336 34.1038L33.0285 32.0977H36.4979V36.6292H35.6983V32.7468H33.7874L33.7061 34.3634C33.688 34.7352 33.6496 35.0626 33.5909 35.3458C33.5344 35.6271 33.4475 35.8631 33.33 36.0539C33.2148 36.2446 33.0612 36.3882 32.8693 36.4846C32.6773 36.581 32.4367 36.6292 32.1476 36.6292H31.8765Z" fill="white"/>
<path d="M40.4766 36.7236C40.0068 36.7236 39.5946 36.6262 39.24 36.4315C38.8876 36.2368 38.6121 35.9644 38.4133 35.6143C38.2168 35.2642 38.1185 34.8551 38.1185 34.387C38.1185 33.915 38.2168 33.503 38.4133 33.1509C38.6121 32.7989 38.8876 32.5255 39.24 32.3308C39.5946 32.1361 40.0068 32.0387 40.4766 32.0387C40.9465 32.0387 41.3575 32.1361 41.7099 32.3308C42.0645 32.5255 42.3401 32.7989 42.5366 33.1509C42.7354 33.503 42.8348 33.915 42.8348 34.387C42.8348 34.8551 42.7354 35.2642 42.5366 35.6143C42.3401 35.9644 42.0645 36.2368 41.7099 36.4315C41.3575 36.6262 40.9465 36.7236 40.4766 36.7236ZM40.4766 36.0981C40.8335 36.0981 41.1272 36.0185 41.3575 35.8592C41.5879 35.6999 41.7585 35.4904 41.8691 35.2308C41.9798 34.9712 42.0352 34.6899 42.0352 34.387C42.0352 34.0842 41.9798 33.8019 41.8691 33.5403C41.7585 33.2788 41.5879 33.0673 41.3575 32.9061C41.1272 32.7448 40.8335 32.6642 40.4766 32.6642C40.1198 32.6642 39.8261 32.7448 39.5957 32.9061C39.3653 33.0673 39.1948 33.2788 39.0841 33.5403C38.9735 33.8019 38.9181 34.0842 38.9181 34.387C38.9181 34.6899 38.9735 34.9712 39.0841 35.2308C39.1948 35.4904 39.3653 35.6999 39.5957 35.8592C39.8261 36.0185 40.1198 36.0981 40.4766 36.0981Z" fill="white"/>
<path d="M47.6648 32.0977V32.7468H45.2524V36.6292H44.4528V32.0977H47.6648Z" fill="white"/>
<path d="M50.0291 35.6025L52.5363 32.0977H53.4578V36.6292H52.6582V33.1244L50.1646 36.6292H49.2295V32.0977H50.0291V35.6025Z" fill="white"/>
<path d="M59.3314 32.0977V36.6292H58.5318V32.0977H59.3314ZM59.0196 34.2572V34.9063C58.839 34.9653 58.6594 35.0174 58.4809 35.0626C58.3025 35.1059 58.115 35.1403 57.9185 35.1659C57.722 35.1895 57.5063 35.2013 57.2714 35.2013C56.6819 35.2013 56.2087 35.0626 55.8518 34.7853C55.4972 34.508 55.3199 34.092 55.3199 33.5374V32.0859H56.1194V33.5374C56.1194 33.7695 56.1703 33.9603 56.2719 34.1097C56.3736 34.2592 56.5113 34.3703 56.6853 34.4431C56.8592 34.5159 57.0546 34.5522 57.2714 34.5522C57.6102 34.5522 57.9163 34.5257 58.1896 34.4726C58.4651 34.4175 58.7418 34.3457 59.0196 34.2572Z" fill="white"/>
<path d="M63.3779 36.7236C62.8764 36.7236 62.4439 36.6272 62.0802 36.4344C61.7188 36.2397 61.4399 35.9683 61.2434 35.6202C61.0491 35.2701 60.952 34.863 60.952 34.3988C60.952 33.9347 61.0491 33.5256 61.2434 33.1716C61.4399 32.8156 61.7132 32.5383 62.0633 32.3396C62.4156 32.139 62.8267 32.0387 63.2965 32.0387C63.5676 32.0387 63.8353 32.0781 64.0995 32.1567C64.3638 32.2354 64.6043 32.3632 64.8212 32.5402C65.038 32.7153 65.2108 32.9474 65.3396 33.2365C65.4683 33.5256 65.5327 33.8816 65.5327 34.3044V34.5994H61.5212V33.9976H64.7195C64.7195 33.7419 64.6608 33.5138 64.5434 33.3132C64.4282 33.1126 64.2633 32.9542 64.0487 32.8382C63.8364 32.7222 63.5857 32.6642 63.2965 32.6642C62.9781 32.6642 62.7025 32.733 62.4699 32.8707C62.2395 33.0064 62.0622 33.1834 61.9379 33.4017C61.8137 33.62 61.7516 33.854 61.7516 34.1038V34.505C61.7516 34.8473 61.8193 35.1374 61.9549 35.3753C62.0926 35.6114 62.2835 35.7913 62.5275 35.9152C62.7714 36.0372 63.0549 36.0981 63.3779 36.0981C63.5879 36.0981 63.7777 36.0726 63.9471 36.0214C64.1187 35.9683 64.2667 35.8896 64.3909 35.7854C64.5151 35.6792 64.6111 35.5474 64.6789 35.3901L65.4514 35.5789C65.3701 35.807 65.2334 36.0077 65.0414 36.1807C64.8494 36.3518 64.6123 36.4856 64.3299 36.5819C64.0476 36.6764 63.7302 36.7236 63.3779 36.7236Z" fill="white"/>
<path d="M69.2607 36.7236C68.7728 36.7236 68.3527 36.6233 68.0003 36.4226C67.648 36.222 67.3769 35.9457 67.1872 35.5936C66.9975 35.2416 66.9026 34.8394 66.9026 34.387C66.9026 33.9268 66.9997 33.5207 67.194 33.1686C67.3905 32.8146 67.6638 32.5383 68.0139 32.3396C68.3663 32.139 68.7773 32.0387 69.2472 32.0387C69.6131 32.0387 69.9428 32.0977 70.2365 32.2157C70.5301 32.3337 70.7707 32.4989 70.9581 32.7114C71.1456 32.9238 71.2619 33.1716 71.3071 33.4548H70.5075C70.4465 33.2483 70.311 33.0654 70.101 32.9061C69.8932 32.7448 69.6131 32.6642 69.2607 32.6642C68.949 32.6642 68.6757 32.735 68.4408 32.8766C68.2081 33.0162 68.0263 33.2139 67.8953 33.4695C67.7666 33.7233 67.7022 34.0212 67.7022 34.3634C67.7022 34.7135 67.7654 35.0184 67.8919 35.278C68.0207 35.5376 68.2014 35.7392 68.434 35.8828C68.6689 36.0263 68.9445 36.0981 69.2607 36.0981C69.4685 36.0981 69.6571 36.0667 69.8265 36.0037C69.9959 35.9408 70.1394 35.8503 70.2568 35.7323C70.3743 35.6143 70.4578 35.4727 70.5075 35.3075H71.3071C71.2619 35.575 71.1501 35.8159 70.9717 36.0303C70.7955 36.2427 70.5617 36.4118 70.2704 36.5377C69.9812 36.6616 69.6447 36.7236 69.2607 36.7236Z" fill="white"/>
<path d="M72.8735 36.6292V32.0977H73.6731V34.0684H74.2017L76.0719 32.0977H77.1019L75.0013 34.2808L77.129 36.6292H76.099L74.3914 34.7175H73.6731V36.6292H72.8735Z" fill="white"/>
<path d="M79.927 36.7354C79.5972 36.7354 79.2979 36.6813 79.0291 36.5731C78.7603 36.463 78.5469 36.3046 78.3888 36.0981C78.2307 35.8896 78.1516 35.6379 78.1516 35.3429C78.1516 35.0833 78.2104 34.8728 78.3278 34.7116C78.4453 34.5483 78.6022 34.4205 78.7987 34.328C78.9953 34.2356 79.2121 34.1668 79.4493 34.1215C79.6887 34.0743 79.9292 34.037 80.1709 34.0094C80.4871 33.974 80.7435 33.9475 80.94 33.9298C81.1388 33.9101 81.2833 33.8776 81.3737 33.8324C81.4663 33.7872 81.5126 33.7085 81.5126 33.5964V33.5728C81.5126 33.2817 81.4211 33.0555 81.2382 32.8943C81.0575 32.733 80.783 32.6524 80.4149 32.6524C80.0331 32.6524 79.7339 32.7251 79.517 32.8707C79.3002 33.0162 79.1477 33.1716 79.0596 33.3368L78.3007 33.1008C78.4362 32.8254 78.6169 32.611 78.8428 32.4576C79.0709 32.3023 79.3194 32.1941 79.5882 32.1331C79.8592 32.0702 80.1257 32.0387 80.3878 32.0387C80.5549 32.0387 80.7469 32.0564 80.9637 32.0918C81.1828 32.1253 81.394 32.1951 81.5973 32.3013C81.8028 32.4075 81.9734 32.5678 82.1089 32.7822C82.2444 32.9965 82.3122 33.2837 82.3122 33.6436V36.6292H81.5126V36.0155H81.4719C81.4177 36.1139 81.3274 36.2191 81.2009 36.3312C81.0744 36.4433 80.9061 36.5387 80.6961 36.6174C80.486 36.696 80.2296 36.7354 79.927 36.7354ZM80.049 36.1099C80.3652 36.1099 80.6317 36.0558 80.8485 35.9477C81.0676 35.8395 81.2325 35.6999 81.3432 35.5287C81.4561 35.3576 81.5126 35.1777 81.5126 34.9889V34.3516C81.4787 34.387 81.4042 34.4195 81.289 34.449C81.1761 34.4765 81.045 34.5011 80.896 34.5227C80.7492 34.5424 80.6057 34.5601 80.4657 34.5758C80.3279 34.5896 80.2161 34.6014 80.1303 34.6112C79.9225 34.6349 79.7282 34.6732 79.5475 34.7263C79.3691 34.7774 79.2245 34.8551 79.1138 34.9594C79.0054 35.0616 78.9512 35.2013 78.9512 35.3783C78.9512 35.6202 79.054 35.8031 79.2595 35.927C79.4673 36.049 79.7305 36.1099 80.049 36.1099Z" fill="white"/>
<path d="M87.2997 36.6292V32.735H85.9174C85.6057 32.735 85.3606 32.7979 85.1822 32.9238C85.0037 33.0496 84.9145 33.2227 84.9145 33.443C84.9145 33.6593 84.9947 33.8295 85.1551 33.9534C85.3177 34.0773 85.5402 34.1392 85.8225 34.1392H87.503V34.7883H85.8225C85.4702 34.7883 85.1664 34.7342 84.9111 34.626C84.6559 34.5178 84.4594 34.3634 84.3216 34.1628C84.1838 33.9603 84.1149 33.7203 84.1149 33.443C84.1149 33.1637 84.1872 32.9238 84.3318 32.7232C84.4763 32.5225 84.683 32.3682 84.9518 32.26C85.2228 32.1518 85.5447 32.0977 85.9174 32.0977H88.0587V36.6292H87.2997ZM83.8303 36.6292L85.3075 34.3752H86.1749L84.6977 36.6292H83.8303Z" fill="white"/>
<path d="M92.5442 36.6292V35.9801H92.7339C92.8898 35.9801 93.0197 35.9536 93.1236 35.9005C93.2275 35.8454 93.3111 35.75 93.3743 35.6143C93.4398 35.4766 93.4895 35.2859 93.5234 35.042C93.5595 34.7961 93.5855 34.4834 93.6013 34.1038L93.6962 32.0977H97.1656V36.6292H96.366V32.7468H94.4551L94.3738 34.3634C94.3557 34.7352 94.3173 35.0626 94.2586 35.3458C94.2021 35.6271 94.1152 35.8631 93.9977 36.0539C93.8825 36.2446 93.7289 36.3882 93.5369 36.4846C93.3449 36.581 93.1044 36.6292 92.8153 36.6292H92.5442Z" fill="white"/>
<path d="M100.562 36.7354C100.232 36.7354 99.9325 36.6813 99.6637 36.5731C99.3949 36.463 99.1815 36.3046 99.0234 36.0981C98.8653 35.8896 98.7862 35.6379 98.7862 35.3429C98.7862 35.0833 98.8449 34.8728 98.9624 34.7116C99.0798 34.5483 99.2368 34.4205 99.4333 34.328C99.6298 34.2356 99.8467 34.1668 100.084 34.1215C100.323 34.0743 100.564 34.037 100.806 34.0094C101.122 33.974 101.378 33.9475 101.575 33.9298C101.773 33.9101 101.918 33.8776 102.008 33.8324C102.101 33.7872 102.147 33.7085 102.147 33.5964V33.5728C102.147 33.2817 102.056 33.0555 101.873 32.8943C101.692 32.733 101.418 32.6524 101.049 32.6524C100.668 32.6524 100.368 32.7251 100.152 32.8707C99.9348 33.0162 99.7823 33.1716 99.6942 33.3368L98.9353 33.1008C99.0708 32.8254 99.2515 32.611 99.4774 32.4576C99.7055 32.3023 99.954 32.1941 100.223 32.1331C100.494 32.0702 100.76 32.0387 101.022 32.0387C101.189 32.0387 101.381 32.0564 101.598 32.0918C101.817 32.1253 102.029 32.1951 102.232 32.3013C102.437 32.4075 102.608 32.5678 102.743 32.7822C102.879 32.9965 102.947 33.2837 102.947 33.6436V36.6292H102.147V36.0155H102.107C102.052 36.1139 101.962 36.2191 101.835 36.3312C101.709 36.4433 101.541 36.5387 101.331 36.6174C101.121 36.696 100.864 36.7354 100.562 36.7354ZM100.684 36.1099C101 36.1099 101.266 36.0558 101.483 35.9477C101.702 35.8395 101.867 35.6999 101.978 35.5287C102.091 35.3576 102.147 35.1777 102.147 34.9889V34.3516C102.113 34.387 102.039 34.4195 101.924 34.449C101.811 34.4765 101.68 34.5011 101.531 34.5227C101.384 34.5424 101.24 34.5601 101.1 34.5758C100.962 34.5896 100.851 34.6014 100.765 34.6112C100.557 34.6349 100.363 34.6732 100.182 34.7263C100.004 34.7774 99.8591 34.8551 99.7484 34.9594C99.64 35.0616 99.5858 35.2013 99.5858 35.3783C99.5858 35.6202 99.6886 35.8031 99.8941 35.927C100.102 36.049 100.365 36.1099 100.684 36.1099Z" fill="white"/>
<path d="M108.666 30.3984L109.073 30.8233C108.915 30.957 108.732 31.0504 108.524 31.1035C108.316 31.1566 108.081 31.1891 107.819 31.2009C107.557 31.2127 107.266 31.2245 106.945 31.2363C106.584 31.2481 106.284 31.3248 106.047 31.4664C105.81 31.608 105.627 31.8125 105.498 32.08C105.37 32.3475 105.287 32.676 105.251 33.0654H105.319C105.495 32.7822 105.739 32.5737 106.051 32.4399C106.362 32.3062 106.697 32.2393 107.053 32.2393C107.46 32.2393 107.826 32.3219 108.151 32.4871C108.476 32.6524 108.734 32.8972 108.924 33.2217C109.113 33.5462 109.208 33.9465 109.208 34.4224C109.208 34.8964 109.111 35.3055 108.917 35.6497C108.725 35.9939 108.455 36.2594 108.107 36.4462C107.762 36.6311 107.356 36.7236 106.891 36.7236C106.425 36.7236 106.018 36.6282 105.668 36.4374C105.318 36.2446 105.045 35.9595 104.851 35.5818C104.657 35.2023 104.56 34.7332 104.56 34.1746V33.6908C104.56 32.6819 104.756 31.9168 105.149 31.3956C105.545 30.8744 106.139 30.6049 106.931 30.5872C107.212 30.5794 107.461 30.5774 107.68 30.5813C107.899 30.5853 108.09 30.5764 108.253 30.5548C108.415 30.5332 108.553 30.481 108.666 30.3984ZM106.891 36.0981C107.205 36.0981 107.475 36.0293 107.701 35.8916C107.929 35.7539 108.104 35.5602 108.226 35.3104C108.348 35.0587 108.409 34.7627 108.409 34.4224C108.409 34.092 108.347 33.8108 108.222 33.5787C108.1 33.3466 107.925 33.1696 107.697 33.0477C107.469 32.9257 107.196 32.8648 106.877 32.8648C106.645 32.8648 106.436 32.8992 106.25 32.968C106.065 33.0369 105.907 33.1381 105.776 33.2719C105.645 33.4056 105.543 33.5689 105.471 33.7616C105.401 33.9543 105.364 34.1746 105.359 34.4224C105.359 34.9299 105.496 35.336 105.769 35.6409C106.043 35.9457 106.416 36.0981 106.891 36.0981Z" fill="white"/>
<path d="M112.943 36.7236C112.473 36.7236 112.061 36.6262 111.706 36.4315C111.354 36.2368 111.078 35.9644 110.88 35.6143C110.683 35.2642 110.585 34.8551 110.585 34.387C110.585 33.915 110.683 33.503 110.88 33.1509C111.078 32.7989 111.354 32.5255 111.706 32.3308C112.061 32.1361 112.473 32.0387 112.943 32.0387C113.413 32.0387 113.824 32.1361 114.176 32.3308C114.531 32.5255 114.806 32.7989 115.003 33.1509C115.202 33.503 115.301 33.915 115.301 34.387C115.301 34.8551 115.202 35.2642 115.003 35.6143C114.806 35.9644 114.531 36.2368 114.176 36.4315C113.824 36.6262 113.413 36.7236 112.943 36.7236ZM112.943 36.0981C113.3 36.0981 113.594 36.0185 113.824 35.8592C114.054 35.6999 114.225 35.4904 114.336 35.2308C114.446 34.9712 114.502 34.6899 114.502 34.387C114.502 34.0842 114.446 33.8019 114.336 33.5403C114.225 33.2788 114.054 33.0673 113.824 32.9061C113.594 32.7448 113.3 32.6642 112.943 32.6642C112.586 32.6642 112.293 32.7448 112.062 32.9061C111.832 33.0673 111.661 33.2788 111.551 33.5403C111.44 33.8019 111.385 34.0842 111.385 34.387C111.385 34.6899 111.44 34.9712 111.551 35.2308C111.661 35.4904 111.832 35.6999 112.062 35.8592C112.293 36.0185 112.586 36.0981 112.943 36.0981Z" fill="white"/>
<path d="M116.919 38.3284V32.0977H117.692V32.8176H117.787C117.845 32.7389 117.927 32.6386 118.031 32.5166C118.137 32.3927 118.288 32.2826 118.485 32.1862C118.683 32.0879 118.952 32.0387 119.291 32.0387C119.729 32.0387 120.115 32.1341 120.45 32.3249C120.784 32.5157 121.045 32.7861 121.232 33.1362C121.42 33.4863 121.513 33.8993 121.513 34.3752C121.513 34.8551 121.42 35.2711 121.232 35.6232C121.045 35.9732 120.785 36.2446 120.453 36.4374C120.121 36.6282 119.738 36.7236 119.304 36.7236C118.97 36.7236 118.703 36.6754 118.501 36.579C118.3 36.4807 118.146 36.3695 118.037 36.2456C117.929 36.1198 117.845 36.0155 117.787 35.9329H117.719V38.3284H116.919ZM117.705 34.3634C117.705 34.7057 117.763 35.0076 117.878 35.2691C117.993 35.5287 118.162 35.7323 118.383 35.8798C118.604 36.0254 118.875 36.0981 119.196 36.0981C119.53 36.0981 119.809 36.0214 120.033 35.868C120.259 35.7126 120.428 35.5042 120.541 35.2426C120.656 34.979 120.714 34.686 120.714 34.3634C120.714 34.0448 120.657 33.7577 120.545 33.502C120.434 33.2443 120.266 33.0408 120.04 32.8913C119.816 32.7399 119.535 32.6642 119.196 32.6642C118.871 32.6642 118.597 32.7359 118.376 32.8795C118.155 33.0211 117.988 33.2198 117.875 33.4754C117.762 33.7292 117.705 34.0252 117.705 34.3634Z" fill="white"/>
<path d="M124.662 36.7354C124.332 36.7354 124.033 36.6813 123.764 36.5731C123.496 36.463 123.282 36.3046 123.124 36.0981C122.966 35.8896 122.887 35.6379 122.887 35.3429C122.887 35.0833 122.946 34.8728 123.063 34.7116C123.18 34.5483 123.337 34.4205 123.534 34.328C123.73 34.2356 123.947 34.1668 124.184 34.1215C124.424 34.0743 124.664 34.037 124.906 34.0094C125.222 33.974 125.479 33.9475 125.675 33.9298C125.874 33.9101 126.019 33.8776 126.109 33.8324C126.201 33.7872 126.248 33.7085 126.248 33.5964V33.5728C126.248 33.2817 126.156 33.0555 125.973 32.8943C125.793 32.733 125.518 32.6524 125.15 32.6524C124.768 32.6524 124.469 32.7251 124.252 32.8707C124.035 33.0162 123.883 33.1716 123.795 33.3368L123.036 33.1008C123.171 32.8254 123.352 32.611 123.578 32.4576C123.806 32.3023 124.055 32.1941 124.323 32.1331C124.594 32.0702 124.861 32.0387 125.123 32.0387C125.29 32.0387 125.482 32.0564 125.699 32.0918C125.918 32.1253 126.129 32.1951 126.332 32.3013C126.538 32.4075 126.709 32.5678 126.844 32.7822C126.98 32.9965 127.047 33.2837 127.047 33.6436V36.6292H126.248V36.0155H126.207C126.153 36.1139 126.063 36.2191 125.936 36.3312C125.81 36.4433 125.641 36.5387 125.431 36.6174C125.221 36.696 124.965 36.7354 124.662 36.7354ZM124.784 36.1099C125.1 36.1099 125.367 36.0558 125.584 35.9477C125.803 35.8395 125.968 35.6999 126.078 35.5287C126.191 35.3576 126.248 35.1777 126.248 34.9889V34.3516C126.214 34.387 126.139 34.4195 126.024 34.449C125.911 34.4765 125.78 34.5011 125.631 34.5227C125.484 34.5424 125.341 34.5601 125.201 34.5758C125.063 34.5896 124.951 34.6014 124.865 34.6112C124.658 34.6349 124.463 34.6732 124.283 34.7263C124.104 34.7774 123.96 34.8551 123.849 34.9594C123.741 35.0616 123.686 35.2013 123.686 35.3783C123.686 35.6202 123.789 35.8031 123.995 35.927C124.203 36.049 124.466 36.1099 124.784 36.1099Z" fill="white"/>
<path d="M128.196 32.7468V32.0977H132.425V32.7468H130.717V36.6292H129.917V32.7468H128.196Z" fill="white"/>
<path d="M135.832 36.7236C135.363 36.7236 134.95 36.6262 134.596 36.4315C134.243 36.2368 133.968 35.9644 133.769 35.6143C133.573 35.2642 133.474 34.8551 133.474 34.387C133.474 33.915 133.573 33.503 133.769 33.1509C133.968 32.7989 134.243 32.5255 134.596 32.3308C134.95 32.1361 135.363 32.0387 135.832 32.0387C136.302 32.0387 136.713 32.1361 137.066 32.3308C137.42 32.5255 137.696 32.7989 137.892 33.1509C138.091 33.503 138.191 33.915 138.191 34.387C138.191 34.8551 138.091 35.2642 137.892 35.6143C137.696 35.9644 137.42 36.2368 137.066 36.4315C136.713 36.6262 136.302 36.7236 135.832 36.7236ZM135.832 36.0981C136.189 36.0981 136.483 36.0185 136.713 35.8592C136.944 35.6999 137.114 35.4904 137.225 35.2308C137.336 34.9712 137.391 34.6899 137.391 34.387C137.391 34.0842 137.336 33.8019 137.225 33.5403C137.114 33.2788 136.944 33.0673 136.713 32.9061C136.483 32.7448 136.189 32.6642 135.832 32.6642C135.476 32.6642 135.182 32.7448 134.951 32.9061C134.721 33.0673 134.551 33.2788 134.44 33.5403C134.329 33.8019 134.274 34.0842 134.274 34.387C134.274 34.6899 134.329 34.9712 134.44 35.2308C134.551 35.4904 134.721 35.6999 134.951 35.8592C135.182 36.0185 135.476 36.0981 135.832 36.0981Z" fill="white"/>
<path d="M139.809 38.3284V32.0977H140.581V32.8176H140.676C140.735 32.7389 140.816 32.6386 140.92 32.5166C141.026 32.3927 141.177 32.2826 141.374 32.1862C141.573 32.0879 141.841 32.0387 142.18 32.0387C142.618 32.0387 143.005 32.1341 143.339 32.3249C143.673 32.5157 143.934 32.7861 144.122 33.1362C144.309 33.4863 144.403 33.8993 144.403 34.3752C144.403 34.8551 144.309 35.2711 144.122 35.6232C143.934 35.9732 143.674 36.2446 143.342 36.4374C143.01 36.6282 142.628 36.7236 142.194 36.7236C141.86 36.7236 141.592 36.6754 141.391 36.579C141.19 36.4807 141.035 36.3695 140.927 36.2456C140.818 36.1198 140.735 36.0155 140.676 35.9329H140.608V38.3284H139.809ZM140.595 34.3634C140.595 34.7057 140.652 35.0076 140.767 35.2691C140.883 35.5287 141.051 35.7323 141.272 35.8798C141.494 36.0254 141.765 36.0981 142.085 36.0981C142.42 36.0981 142.699 36.0214 142.922 35.868C143.148 35.7126 143.318 35.5042 143.43 35.2426C143.546 34.979 143.603 34.686 143.603 34.3634C143.603 34.0448 143.547 33.7577 143.434 33.502C143.323 33.2443 143.155 33.0408 142.929 32.8913C142.705 32.7399 142.424 32.6642 142.085 32.6642C141.76 32.6642 141.487 32.7359 141.265 32.8795C141.044 33.0211 140.877 33.2198 140.764 33.4754C140.651 33.7292 140.595 34.0252 140.595 34.3634Z" fill="white"/>
<path d="M146.82 35.6025L149.327 32.0977H150.248V36.6292H149.449V33.1244L146.955 36.6292H146.02V32.0977H146.82V35.6025Z" fill="white"/>
<path d="M155.241 36.6292V32.735H153.859C153.547 32.735 153.302 32.7979 153.124 32.9238C152.945 33.0496 152.856 33.2227 152.856 33.443C152.856 33.6593 152.936 33.8295 153.096 33.9534C153.259 34.0773 153.482 34.1392 153.764 34.1392H155.444V34.7883H153.764C153.411 34.7883 153.108 34.7342 152.852 34.626C152.597 34.5178 152.401 34.3634 152.263 34.1628C152.125 33.9603 152.056 33.7203 152.056 33.443C152.056 33.1637 152.129 32.9238 152.273 32.7232C152.418 32.5225 152.624 32.3682 152.893 32.26C153.164 32.1518 153.486 32.0977 153.859 32.0977H156V36.6292H155.241ZM151.772 36.6292L153.249 34.3752H154.116L152.639 36.6292H151.772Z" fill="white"/>
</svg>
